<svg xmlns="http://www.w3.org/2000/svg" viewBox="0 0 400 100" width="400" height="100">
    <a href="https://github.com/SolventNetwork" target="_blank">
        <!-- GitHub Logo -->
        <svg x="25" y="25" width="50" height="50">
            <path fill-rule="evenodd" clip-rule="evenodd" d="M24.427 0C10.919 0 0 11 0 24.608c0 10.863 6.996 20.086 16.702 23.345 1.212 .245 1.658-.525 1.658-1.18 0-.572-.021-2.52-.021-4.608-6.807 1.475-8.248-3.273-8.248-3.273-1.091-2.85-2.678-3.605-2.678-3.605-2.21-1.51.162-1.48 .162-1.48 2.45 .162 3.739 2.52 3.739 2.52 2.179 3.745 5.706 2.669 7.108 2.038 .122-1.58 .849-2.67 1.54-3.286-5.422-.615-11.116-2.71-11.116-12.059 0-2.67 .962-4.861 2.54-6.575-.257-.614-1.098-3.077 .242-6.415 0 0 2.073-.663 6.788 2.523a24.507 24.507 0 0 1 6.094-.82c2.054 0 4.167 .081 6.093 .82 4.716-3.186 6.789-2.523 6.789-2.523 1.341 3.338 .502 5.801 .242 6.415 1.579 1.714 2.54 3.905 2.54 6.575 0 9.369-5.707 11.431-11.144 12.034 .871 .75 1.649 2.22 1.649 4.482 0 3.242-.021 5.864-.021 6.66 0 .658 .442 1.43 1.661 1.18 9.705-2.933 16.702-12.156 16.702-23.344C48.854 11 37.935 0 24.427 0z" fill="#4AF626"/>
        </svg>
        
        <!-- Animated Text -->
        <text id="typedText" x="100" y="50" fill="#4AF626" style="font-family:monospace;font-size:16px;"></text>
        <rect id="cursor" x="100" y="30" width="8" height="20" fill="#4AF626" visibility="hidden"></rect>
    </a>
</svg>
