<?xml version="1.0" encoding="UTF-8" standalone="no" ?>
<!DOCTYPE svg PUBLIC "-//W3C//DTD SVG 1.1//EN" "http://www.w3.org/Graphics/SVG/1.1/DTD/svg11.dtd">
<svg xmlns="http://www.w3.org/2000/svg" viewBox="0 0 400 100" width="400" height="100">
    <a href="mailto:garrett@solvent.network?subject=I want to help!">
        <!-- Envelope as Path -->
        <svg x="20" y="20" width="60" height="60" viewBox="0 0 17 17">
            <!-- Transparent Rectangle for Clickable Area -->
            <rect x="0" y="0" width="24" height="24" fill="transparent" />
            <!-- Envelope Path -->
            <path fill="#4AF626" d="M0 4a2 2 0 0 1 2-2h12a2 2 0 0 1 2 2v8a2 2 0 0 1-2 2H2a2 2 0 0 1-2-2V4Zm2-1a1 1 0 0 0-1 1v.217l7 4.2 7-4.2V4a1 1 0 0 0-1-1H2Zm13 2.383-4.708 2.825L15 11.105V5.383Zm-.034 6.876-5.64-3.471L8 9.583l-1.326-.795-5.64 3.47A1 1 0 0 0 2 13h12a1 1 0 0 0 .966-.741ZM1 11.105l4.708-2.897L1 5.383v5.722Z"></path>
        </svg>
        
        <!-- Animated Text -->
        <text id="typedText" x="100" y="50" fill="#4AF626" style="font-family:monospace;font-size:16px;"></text>
        <rect id="cursor" x="100" y="30" width="8" height="20" fill="#4AF626" visibility="hidden"></rect>
    </a>
</svg>
